<svg xmlns="http://www.w3.org/2000/svg" width="24" height="24" viewBox="0 0 24 24" fill="none" stroke="currentColor" stroke-width="2" stroke-linecap="round" stroke-linejoin="round">
  <path d="M14.4 14.4 9.6 9.6"/>
  <path d="M18.657 5.343a.5.5 0 1 0-.707.707l.707-.707Zm-1.414 1.414a.5.5 0 1 0 .707-.707l-.707.707Zm0 11.314a.5.5 0 1 0 .707.707l-.707-.707Zm-1.414 1.414a.5.5 0 1 0 .707-.707l-.707.707ZM5.343 18.657a.5.5 0 1 0 .707.707l-.707-.707Zm1.414-1.414a.5.5 0 1 0-.707.707l.707-.707Zm0-11.314a.5.5 0 1 0-.707-.707l.707.707Zm1.414-1.414a.5.5 0 1 0-.707.707l.707-.707Z"/>
  <path d="M18.657 5.343a.5.5 0 1 0-.707.707l.707-.707Zm-1.414 1.414a.5.5 0 1 0 .707-.707l-.707.707Zm0 11.314a.5.5 0 1 0 .707.707l-.707-.707Zm-1.414 1.414a.5.5 0 1 0 .707-.707l-.707.707ZM5.343 18.657a.5.5 0 1 0 .707.707l-.707-.707Zm1.414-1.414a.5.5 0 1 0-.707.707l.707-.707Zm0-11.314a.5.5 0 1 0-.707-.707l.707.707Zm1.414-1.414a.5.5 0 1 0-.707.707l.707-.707Z"/>
  <path d="M3 3v.01h.01V3zM5 5v.01h.01V5zm14-2v.01h.01V3zM19 5v.01h.01V5zM3 21v-.01h.01V21zm2-2v-.01h.01V19zm14 2v-.01h.01V21zm-2-2v-.01h.01V19z"/>
  <path d="m17.24 6.76.707-.707-1.414-1.414-.707.707zM6.76 17.24l.707-.707-1.414-1.414-.707.707z"/>
  <path d="m5.34 6.76-.707-.707 1.414-1.414.707.707z"/>
  <path d="m18.66 17.24-.707-.707 1.414-1.414.707.707z"/>
</svg>
